<svg id="Layer_1" data-name="Layer 1" xmlns="http://www.w3.org/2000/svg" viewBox="0 0 309.45 304.18"><defs><style>.cls-1{fill:#581c20;}.cls-2{fill:#ba8553;}.cls-3{fill:#fff;}.cls-4{fill:#7c2932;}.cls-5,.cls-6{fill:#343433;}.cls-5{opacity:0.2;}.cls-6{opacity:0.1;}.cls-7{fill:#aa3944;}</style></defs><title>icon-enews</title><polygon class="cls-1" points="309.45 304.18 0.01 304.18 0.01 96.58 153.45 0 309.45 96.58 309.45 304.18"/><rect class="cls-2" x="39.92" y="33.72" width="229.61" height="198.32"/><path class="cls-3" d="M446.93,331.65q-0.72,17.68-10.61,30.58t-29.49,12.9a17.88,17.88,0,0,1-11.25-3.66,19.36,19.36,0,0,1-6.67-10.33,25.28,25.28,0,0,1-8.32,10.25,20.43,20.43,0,0,1-11.77,3.42q-12,0-18.32-9.52T345.83,340q2.09-20.17,11.77-32.3t23.5-12.13q9.72,0,15.63,2.09a69.85,69.85,0,0,1,13,6.43l-0.24.32h0.4l-4.1,45.48q-0.4,7,.92,9.6t3.58,2.61q9,0,14.42-8.64t6.07-21.82q1.28-27.24-10.69-42.47t-37-15.23q-24.27,0-38.57,16.39T329,335q-1.37,27.56,11.61,43.55t37.25,16a70,70,0,0,0,14-1.49,66.66,66.66,0,0,0,12.58-3.74l3.05,13.34a44.22,44.22,0,0,1-13.7,5.26,73.38,73.38,0,0,1-16.27,1.89q-32.47,0-50-20T311.44,335q1.45-34.47,20.73-54.68t51.27-20.21q31.42,0,48.09,19.13T446.93,331.65ZM365.76,340q-0.72,9.64,1.41,14.58t7,4.94a13.12,13.12,0,0,0,7.75-2.41q3.41-2.41,6-8.92l3.21-36.32q-1.77-.4-3.46-0.68a20.55,20.55,0,0,0-3.37-.28,14,14,0,0,0-12.74,7.27Q367.13,325.47,365.76,340Z" transform="translate(-221.61 -210.65)"/><polyline class="cls-4" points="0.01 304.18 0.01 96.58 154.73 200.39 309.45 96.58 309.45 304.18"/><polygon class="cls-5" points="309.45 96.58 154.73 200.39 0.01 96.58 154.73 177.8 309.45 96.58"/><polygon class="cls-6" points="154.72 200.39 129.48 183.45 0 304.17 0 304.18 154.72 304.18 309.44 304.18 179.97 183.45 154.72 200.39"/><polygon class="cls-7" points="309.45 304.18 154.73 304.18 0.01 304.18 154.73 177.8 309.45 304.18"/></svg>